<?xml version="1.0" encoding="UTF-8" standalone="no"?>
<!-- Created with Inkscape (http://www.inkscape.org/) -->

<svg
   version="1.1"
   id="svg1"
   width="15.999993"
   height="15.999919"
   viewBox="0 0 15.999993 15.999919"
   sodipodi:docname="safari-pinned-tab.svg"
   inkscape:export-filename="android-chrome-512x512.svg"
   inkscape:export-xdpi="9.375"
   inkscape:export-ydpi="9.375"
   inkscape:version="1.4 (e7c3feb, 2024-10-09)"
   xmlns:inkscape="http://www.inkscape.org/namespaces/inkscape"
   xmlns:sodipodi="http://sodipodi.sourceforge.net/DTD/sodipodi-0.dtd"
   xmlns="http://www.w3.org/2000/svg"
   xmlns:svg="http://www.w3.org/2000/svg">
  <defs
     id="defs1" />
  <sodipodi:namedview
     id="namedview1"
     pagecolor="#ffffff"
     bordercolor="#000000"
     borderopacity="0.25"
     inkscape:showpageshadow="2"
     inkscape:pageopacity="0.0"
     inkscape:pagecheckerboard="0"
     inkscape:deskcolor="#d1d1d1"
     inkscape:zoom="4.9194337"
     inkscape:cx="-6.8097269"
     inkscape:cy="80.903621"
     inkscape:window-width="1920"
     inkscape:window-height="1008"
     inkscape:window-x="0"
     inkscape:window-y="1080"
     inkscape:window-maximized="1"
     inkscape:current-layer="g1" />
  <g
     inkscape:groupmode="layer"
     inkscape:label="Image"
     id="g1"
     transform="translate(-88.658976,-66.046362)">
    <path
       style="fill:#000000;stroke-width:0.104443"
       d="m 96.376807,82.041364 c -0.0089,-0.0082 -0.175524,-0.02273 -0.370224,-0.03237 -0.194697,-0.0095 -0.528462,-0.04762 -0.741701,-0.08446 -0.213243,-0.03683 -0.448394,-0.07445 -0.522564,-0.08364 -0.858337,-0.106135 -2.946235,-1.165544 -3.313995,-1.68154 -0.02439,-0.03422 -0.05882,-0.06223 -0.0765,-0.06223 -0.02602,0 -0.393391,-0.356936 -0.733166,-0.712341 -0.257327,-0.269168 -0.950264,-1.284502 -0.950264,-1.392389 0,-0.01877 -0.02644,-0.07099 -0.05875,-0.116039 -0.297137,-0.414321 -0.748737,-1.838531 -0.905439,-2.855478 -0.07962,-0.516672 -0.04817,-2.392012 0.04793,-2.858919 0.145667,-0.707709 0.241326,-1.100614 0.31056,-1.275591 0.03966,-0.100226 0.08392,-0.228714 0.09835,-0.285532 0.01443,-0.05682 0.0648,-0.183549 0.111933,-0.281625 0.04713,-0.09808 0.124825,-0.260321 0.172662,-0.360546 0.44839,-0.939451 1.159977,-1.753298 2.203264,-2.519884 1.847211,-1.357296 5.111913,-1.791466 7.474191,-0.993984 0.149452,0.05045 0.332422,0.110573 0.406587,0.1336 0.317415,0.09854 1.470669,0.693248 1.722629,0.888319 0.0539,0.04169 0.24204,0.182587 0.41819,0.313106 0.51429,0.381051 1.55084,1.481457 1.55084,1.646371 0,0.01506 0.0221,0.04539 0.049,0.06738 0.11015,0.08985 0.6008,0.957027 0.7318,1.293403 0.039,0.100226 0.0837,0.198159 0.0993,0.21763 0.0433,0.05411 0.32068,0.903784 0.36204,1.10873 0.29311,1.452244 0.25468,3.039088 -0.10228,4.223288 -0.0549,0.182227 -0.11396,0.387248 -0.13119,0.455599 -0.0995,0.394805 -0.62178,1.43209 -0.91333,1.813959 -0.0348,0.04555 -0.1773,0.229467 -0.31671,0.408692 -0.13942,0.179224 -0.23388,0.314936 -0.20992,0.301574 0.024,-0.01337 -0.006,0.02021 -0.0659,0.07458 -0.0602,0.05438 -0.10238,0.105835 -0.0937,0.11434 0.008,0.0084 -0.018,0.04692 -0.0591,0.08536 -0.17009,0.158864 -0.28995,0.259999 -0.34916,0.294638 -0.0345,0.02021 -0.0628,0.05748 -0.0628,0.08283 0,0.02536 -0.0183,0.04608 -0.0405,0.04608 -0.0222,0 -0.0602,0.02082 -0.0843,0.04627 -0.0362,0.03823 -0.0356,0.04167 0.004,0.01974 0.032,-0.01795 0.0395,-0.01396 0.023,0.01225 -0.0134,0.02133 -0.036,0.03171 -0.0503,0.02307 -0.0509,-0.03094 -0.18307,0.08657 -0.13302,0.118282 0.0348,0.02209 0.0278,0.03368 -0.0299,0.04922 -0.0444,0.01196 -0.0661,0.03583 -0.0525,0.05799 0.0142,0.0234 0.004,0.02209 -0.0288,-0.0036 -0.0668,-0.05318 -0.10821,-0.01326 -0.0536,0.05178 0.0362,0.04322 0.0323,0.04487 -0.0298,0.01241 -0.0595,-0.03114 -0.0823,-0.02566 -0.13485,0.03253 -0.0625,0.06921 -0.0623,0.06959 0.0104,0.03207 0.10284,-0.05301 0.12612,-0.04729 0.0624,0.0153 -0.0298,0.02929 -0.0834,0.04572 -0.11917,0.03655 -0.0372,-0.0095 -0.0835,0.0067 -0.10836,0.03785 -0.0396,0.04972 -0.0374,0.0502 0.024,0.0055 0.0655,-0.04774 0.0658,-0.04719 0.008,0.01917 -0.0325,0.03756 -0.059,0.08531 -0.059,0.106066 0,0.02078 -0.0227,0.02919 -0.0505,0.01868 -0.0278,-0.01048 -0.0505,-0.0028 -0.0505,0.01721 0,0.01999 -0.0342,0.03359 -0.0759,0.03028 -0.0417,-0.0034 -0.11758,0.02094 -0.16857,0.05388 -0.0938,0.06062 -0.12809,0.106937 -0.0505,0.06834 0.0232,-0.01155 0.0122,0.0028 -0.0243,0.03191 -0.0366,0.0291 -0.0866,0.04528 -0.11133,0.03596 -0.0247,-0.0092 -0.037,-0.0044 -0.0274,0.01097 0.01,0.01533 -0.006,0.05617 -0.0344,0.09072 -0.0286,0.03456 -0.0429,0.04513 -0.0319,0.02343 0.0123,-0.02419 -0.005,-0.03758 -0.0444,-0.03463 -0.0427,0.0033 -0.0582,0.02203 -0.046,0.05598 0.0101,0.02816 0.006,0.03998 -0.009,0.02624 -0.0154,-0.01372 -0.0637,-0.0019 -0.10746,0.02623 -0.0438,0.02816 -0.0929,0.04307 -0.10923,0.03314 -0.0417,-0.02535 -0.14029,0.01631 -0.11894,0.05024 0.01,0.01539 -0.0167,0.046 -0.0585,0.06802 -0.0989,0.052 -0.16344,0.116274 -0.13998,0.139336 0.0102,0.01006 -0.0132,0.01009 -0.0522,8e-5 -0.0448,-0.01149 -0.07073,-0.0025 -0.07073,0.02435 0,0.02338 -0.0096,0.0331 -0.02131,0.0216 -0.01173,-0.01152 -0.05305,8.97e-4 -0.09176,0.02761 -0.03881,0.0267 -0.105054,0.04854 -0.147279,0.04854 -0.04225,0 -0.07678,0.01554 -0.07678,0.03457 0,0.01902 -0.01899,0.03082 -0.04216,0.02618 -0.02317,-0.0047 -0.0752,0.0095 -0.115552,0.03156 -0.04039,0.02197 -0.09532,0.03171 -0.122085,0.02162 -0.0268,-0.01009 -0.07324,0.0059 -0.103324,0.03537 -0.03006,0.02954 -0.06865,0.04523 -0.08575,0.03483 -0.01712,-0.01039 -0.03639,-0.0034 -0.04287,0.01584 -0.0065,0.01911 -0.04949,0.03915 -0.09559,0.04459 -0.184386,0.02171 -0.370385,0.06323 -0.370408,0.08271 -1.1e-5,0.01133 -0.04022,0.02291 -0.08936,0.02569 -0.211752,0.01204 -0.449857,0.05124 -0.436995,0.0719 0.02317,0.03722 -0.331387,0.02804 -0.358091,-0.0092 -0.01593,-0.02228 -0.02495,-0.01929 -0.0253,0.0082 -2.87e-4,0.02862 -0.04832,0.0424 -0.143797,0.04129 -0.07881,-8.97e-4 -0.386308,0.0069 -0.683336,0.01719 -0.297026,0.01036 -0.54735,0.01213 -0.556277,0.004 z m 1.742759,-2.916782 c 0.940809,-0.225632 1.687218,-0.846927 2.147634,-1.787642 0.27647,-0.564901 0.53068,-1.701457 0.35695,-1.595939 -0.0182,0.01101 -0.0415,-0.0019 -0.0519,-0.02851 -0.0104,-0.02668 -0.0445,-0.04476 -0.0757,-0.04017 -0.0312,0.0046 -0.0879,-0.01166 -0.12614,-0.0361 -0.0465,-0.0298 -0.22992,-0.04958 -0.556283,-0.05998 -0.728905,-0.02325 -1.107775,-0.05743 -1.185804,-0.107033 -0.02349,-0.01494 -0.14131,-0.03459 -0.261836,-0.04372 l -0.219141,-0.01657 -0.0088,-1.21761 -0.0088,-1.21761 h 0.7367 c 1.488114,0 2.062384,-0.03255 2.062384,-0.116872 0,-1.820622 -1.596169,-3.679338 -3.287102,-3.827774 -1.939058,-0.170218 -2.897388,0.694463 -3.34369,3.016944 -0.07805,0.406118 -0.09134,3.237567 -0.01743,3.710809 0.222259,1.423044 0.659239,2.353225 1.390638,2.960199 0.249163,0.206774 0.750144,0.397151 1.313052,0.498964 0.200538,0.03627 0.806262,-0.0125 1.13528,-0.09141 z"
       id="path2" />
  </g>
</svg>
